<?xml version="1.0" standalone="no"?>
<!DOCTYPE svg PUBLIC "-//W3C//DTD SVG 20010904//EN"
 "http://www.w3.org/TR/2001/REC-SVG-20010904/DTD/svg10.dtd">
<svg version="1.0" xmlns="http://www.w3.org/2000/svg"
 width="64.000000pt" height="64.000000pt" viewBox="0 0 64.000000 64.000000"
 preserveAspectRatio="xMidYMid meet">

<g transform="translate(0.000000,64.000000) scale(0.100000,-0.100000)"
fill="#000000" stroke="none">
<path d="M91 538 c0 -7 8 -35 18 -63 17 -49 18 -50 63 -53 39 -3 51 -10 94
-53 l48 -49 -64 -65 c-61 -61 -67 -65 -111 -65 -28 0 -51 -6 -58 -14 -11 -12
-6 -15 31 -18 43 -3 43 -3 44 -43 l1 -40 -4 38 -4 37 -48 0 c-30 0 -53 -6 -60
-14 -11 -12 -6 -15 31 -18 l43 -3 1 -45 1 -45 -4 42 -4 43 -52 -2 -52 -1 45
-6 c45 -6 45 -6 48 -49 3 -37 6 -42 18 -31 8 7 14 30 14 60 l0 48 -40 4 -40 4
42 -1 43 -1 3 -43 c3 -37 6 -42 18 -31 8 7 14 30 14 60 l0 48 -37 4 -38 4 40
-1 c40 -1 40 -1 46 -46 l6 -45 1 50 c2 48 5 54 67 115 l65 64 65 -64 c62 -61
65 -67 67 -115 l1 -50 6 45 6 45 43 1 42 1 -40 -4 -40 -4 0 -48 c0 -30 6 -53
14 -60 12 -11 15 -6 18 31 l3 43 43 1 42 1 -40 -4 -40 -4 0 -48 c0 -30 6 -53
14 -60 12 -11 15 -6 18 31 3 43 3 43 48 49 l45 6 -52 1 -52 2 -4 -40 -4 -40 1
42 1 43 43 3 c37 3 42 6 31 18 -7 8 -30 14 -60 14 l-48 0 -4 -38 -4 -37 1 40
c1 40 1 40 44 43 37 3 42 6 31 18 -7 8 -30 14 -58 14 -44 0 -50 4 -111 65
l-64 65 48 49 c43 43 55 50 94 53 l45 3 20 58 c10 32 17 61 14 64 -3 3 -32 -4
-64 -14 l-58 -20 -3 -45 c-3 -39 -10 -51 -52 -93 l-50 -49 -50 49 c-42 42 -49
54 -52 93 -3 45 -4 46 -53 63 -61 21 -75 23 -74 7z m83 -27 c18 -7 19 -8 2
-14 -10 -4 -26 -2 -35 5 -14 12 -14 11 -3 -4 9 -11 11 -22 4 -34 -8 -14 -10
-13 -16 10 -11 43 4 54 48 37z m341 -1 c3 -5 3 -21 -1 -36 -6 -23 -8 -24 -16
-10 -7 12 -5 23 4 34 11 15 11 16 -3 4 -9 -7 -25 -9 -35 -5 -17 6 -16 7 2 14
27 11 42 11 49 -1z m-317 -42 c-2 -15 -11 -24 -25 -26 -27 -4 -29 5 -6 30 22
24 35 23 31 -4z m274 5 c24 -22 23 -35 -4 -31 -15 2 -24 11 -26 26 -4 26 5 28
30 5z"/>
</g>
</svg>
